<?xml version="1.0" encoding="utf-8"?>
<!-- Generator: Adobe Illustrator 16.0.3, SVG Export Plug-In . SVG Version: 6.00 Build 0)  -->
<!DOCTYPE svg PUBLIC "-//W3C//DTD SVG 1.1//EN" "http://www.w3.org/Graphics/SVG/1.1/DTD/svg11.dtd">
<svg version="1.1"
	 id="svg2" xmlns:dc="http://purl.org/dc/elements/1.1/" xmlns:cc="http://creativecommons.org/ns#" xmlns:rdf="http://www.w3.org/1999/02/22-rdf-syntax-ns#" xmlns:svg="http://www.w3.org/2000/svg" xmlns:sodipodi="http://sodipodi.sourceforge.net/DTD/sodipodi-0.dtd" xmlns:inkscape="http://www.inkscape.org/namespaces/inkscape" sodipodi:docname="titlepage.svg" inkscape:version="0.48.4 r9939"
	 xmlns="http://www.w3.org/2000/svg" xmlns:xlink="http://www.w3.org/1999/xlink" x="0px" y="0px" width="178.5px" height="252.6px"
	 viewBox="0 0 178.5 252.6" enable-background="new 0 0 178.5 252.6" xml:space="preserve">
<image overflow="visible" enable-background="new    " width="595" height="842" id="image16" xlink:href="D8F08A51.png"  transform="matrix(0.0017 0 0 0.0012 -4.882813e-004 2.441406e-004)">
</image>
<sodipodi:namedview  id="namedview4" pagecolor="#ffffff" inkscape:current-layer="g10" inkscape:window-maximized="1" inkscape:window-y="-8" inkscape:window-x="-8" inkscape:window-height="716" inkscape:window-width="1366" inkscape:pageshadow="2" inkscape:pageopacity="0" inkscape:cy="14.263418" borderopacity="1" bordercolor="#666666" gridtolerance="10" objecttolerance="10" inkscape:cx="125.16355" guidetolerance="10" inkscape:zoom="6.71" showgrid="false">
	</sodipodi:namedview>
<g id="g4020">
	<path id="path3277" inkscape:connector-curvature="0" fill="#9C1006" d="M156.77,250.483c1.137,0,1.953-0.337,2.588-0.762
		c0.592-0.396,1.05-0.865,1.401-1.471c0.454-0.781,0.595-1.508,0.633-1.93c0.001-0.004,0.835-8.787,0.835-8.787l-4.213-0.001
		L156.77,250.483"/>
	<path id="path3279" inkscape:connector-curvature="0" fill="#9C1006" d="M152.784,240.477l-0.57,5.925
		c-0.104,1.418,0.427,2.146,0.757,2.53c0.605,0.701,1.716,1.252,2.999,1.482c0.036-0.377,1.141-11.846,1.141-11.848
		c0.038-0.589-0.133-1.104-0.525-1.553c-0.458-0.523-1.136-0.68-1.416-0.68l-10.073,0.001c-0.758,0-1.897,0.77-1.897,2.037
		c0,1.567,1.393,2.104,1.872,2.104C145.314,240.477,152.784,240.477,152.784,240.477"/>
	<path id="path3281" inkscape:connector-curvature="0" fill="#9C1006" d="M146.918,249.292h3.752l0.768-7.973l-3.752,0.001
		C147.686,241.321,147.016,248.26,146.918,249.292L146.918,249.292"/>
	<path id="path3283" inkscape:connector-curvature="0" fill="#FFFFFF" d="M159.484,244.61c-0.023,0.235,0.235,0.362,0.48,0.362
		h0.449c0.025-0.064,0.041-0.138,0.051-0.229c0.023-0.25-0.111-0.42-0.502-0.421C159.672,244.322,159.502,244.412,159.484,244.61
		L159.484,244.61z M160.71,244.767c-0.02,0.206-0.055,0.361-0.111,0.521l-2.09-0.002l0.03-0.314h0.668c0.084,0,0.2,0.01,0.273,0.027
		l0.002-0.006c-0.174-0.077-0.271-0.251-0.25-0.466c0.033-0.347,0.297-0.538,0.733-0.537
		C160.467,243.99,160.757,244.281,160.71,244.767"/>
	<path id="path3285" inkscape:connector-curvature="0" fill="#FFFFFF" d="M159.604,243.082c-0.017,0.176,0.103,0.3,0.301,0.326
		l0.06-0.62C159.762,242.781,159.622,242.897,159.604,243.082L159.604,243.082z M160.209,242.486l-0.089,0.93
		c0.329,0.009,0.487-0.133,0.517-0.433c0.014-0.141-0.001-0.288-0.044-0.421l0.246-0.041c0.044,0.153,0.062,0.336,0.044,0.519
		c-0.044,0.449-0.301,0.699-0.811,0.699c-0.436,0-0.74-0.251-0.699-0.675c0.04-0.417,0.33-0.591,0.66-0.591
		C160.08,242.473,160.149,242.477,160.209,242.486"/>
	<path id="path3287" inkscape:connector-curvature="0" fill="#FFFFFF" d="M159.844,241.374c-0.082,0.292,0.105,0.433,0.539,0.434
		h0.589l-0.03,0.315l-1.449-0.002l0.029-0.3c0.082,0,0.209,0.009,0.318,0.029v-0.006c-0.189-0.064-0.355-0.212-0.3-0.485
		L159.844,241.374"/>
	<path id="path3289" inkscape:connector-curvature="0" fill="#FFFFFF" d="M161.041,241.09l-2.128-0.001l0.03-0.315l2.127,0.002
		L161.041,241.09"/>
	<path id="path3291" inkscape:connector-curvature="0" fill="#FFFFFF" d="M161.112,240.345l-1.448-0.001l0.03-0.314l1.448,0.001
		L161.112,240.345L161.112,240.345z M159.422,240.185c-0.01,0.112-0.104,0.203-0.215,0.203c-0.107,0-0.186-0.092-0.176-0.203
		c0.011-0.109,0.107-0.2,0.215-0.2C159.354,239.985,159.434,240.076,159.422,240.185"/>
	<path id="path3293" inkscape:connector-curvature="0" fill="#FFFFFF" d="M161.271,238.687l-0.93-0.001
		c-0.18,0-0.293,0.05-0.309,0.218c-0.021,0.221,0.193,0.383,0.484,0.383l0.696,0.001l-0.03,0.314l-1.448-0.001l0.029-0.3
		c0.079,0,0.203,0.006,0.283,0.021v-0.003c-0.179-0.086-0.289-0.263-0.265-0.51c0.031-0.332,0.251-0.435,0.504-0.435l1.016,0.001
		L161.271,238.687"/>
	<g id="g3991">
		<path id="path3295" inkscape:connector-curvature="0" fill="#9C1006" d="M110.002,237.67l-0.143,1.474h-0.275l0.142-1.474h-0.468
			l0.022-0.232h1.214l-0.022,0.232H110.002"/>
		<path id="path3297" inkscape:connector-curvature="0" fill="#9C1006" d="M110.975,238.065c-0.152,0-0.27,0.113-0.309,0.288h0.533
			C111.221,238.176,111.133,238.065,110.975,238.065z M111.441,238.54h-0.799c-0.035,0.285,0.074,0.411,0.332,0.411
			c0.121,0,0.25-0.025,0.369-0.073l0.015,0.21c-0.137,0.051-0.296,0.081-0.452,0.081c-0.388,0-0.583-0.202-0.541-0.645
			c0.037-0.377,0.279-0.662,0.644-0.662c0.358,0,0.485,0.237,0.458,0.523C111.463,238.426,111.454,238.487,111.441,238.54"/>
		<path id="path3299" inkscape:connector-curvature="0" fill="#9C1006" d="M112.166,239.164c-0.322,0-0.543-0.159-0.5-0.606
			c0.039-0.399,0.271-0.69,0.691-0.69c0.105,0,0.209,0.016,0.289,0.048l-0.068,0.23c-0.072-0.03-0.164-0.054-0.258-0.054
			c-0.213,0-0.344,0.178-0.368,0.435c-0.022,0.23,0.042,0.405,0.29,0.405c0.099,0,0.193-0.018,0.275-0.056l0.02,0.225
			C112.43,239.144,112.293,239.164,112.166,239.164"/>
		<path id="path3301" inkscape:connector-curvature="0" fill="#9C1006" d="M113.57,239.144l0.078-0.807
			c0.016-0.156-0.019-0.25-0.162-0.25c-0.19,0-0.349,0.2-0.373,0.453l-0.059,0.604h-0.27l0.178-1.845h0.27l-0.055,0.571
			c-0.008,0.078-0.022,0.182-0.047,0.252l0.005,0.003c0.089-0.159,0.247-0.263,0.452-0.263c0.286,0,0.357,0.182,0.336,0.401
			l-0.085,0.88H113.57"/>
		<path id="path3303" inkscape:connector-curvature="0" fill="#9C1006" d="M114.996,239.144l0.078-0.807
			c0.015-0.156-0.02-0.25-0.164-0.25c-0.189,0-0.348,0.2-0.371,0.453l-0.059,0.604h-0.271l0.121-1.256h0.258
			c-0.007,0.068-0.022,0.177-0.042,0.247h0.003c0.089-0.161,0.251-0.272,0.464-0.272c0.285,0,0.356,0.182,0.336,0.401l-0.086,0.88
			H114.996"/>
		<path id="path3305" inkscape:connector-curvature="0" fill="#9C1006" d="M115.912,237.665c-0.096,0-0.166-0.073-0.158-0.169
			c0.01-0.094,0.096-0.17,0.191-0.17c0.094,0,0.164,0.076,0.156,0.17C116.092,237.589,116.006,237.665,115.912,237.665z
			 M115.634,239.144l0.121-1.256h0.271l-0.121,1.256H115.634"/>
		<path id="path3307" inkscape:connector-curvature="0" fill="#9C1006" d="M116.487,239.169c-0.096,0-0.198-0.013-0.274-0.035
			l0.043-0.23c0.074,0.03,0.174,0.048,0.27,0.048c0.143,0,0.247-0.063,0.257-0.164c0.024-0.258-0.542-0.101-0.499-0.535
			c0.021-0.221,0.203-0.39,0.551-0.39c0.075,0,0.162,0.01,0.234,0.025l-0.036,0.217c-0.071-0.022-0.153-0.035-0.233-0.035
			c-0.15,0-0.227,0.061-0.236,0.157c-0.023,0.247,0.546,0.11,0.506,0.533C117.045,238.997,116.821,239.169,116.487,239.169"/>
		<path id="path3309" inkscape:connector-curvature="0" fill="#9C1006" d="M117.802,239.164c-0.323,0-0.544-0.159-0.501-0.606
			c0.039-0.399,0.271-0.69,0.691-0.69c0.106,0,0.209,0.016,0.289,0.048l-0.068,0.23c-0.072-0.03-0.164-0.054-0.258-0.054
			c-0.212,0-0.343,0.178-0.367,0.435c-0.022,0.23,0.041,0.405,0.289,0.405c0.099,0,0.193-0.018,0.276-0.056l0.019,0.225
			C118.064,239.144,117.928,239.164,117.802,239.164"/>
		<path id="path3311" inkscape:connector-curvature="0" fill="#9C1006" d="M119.206,239.144l0.077-0.807
			c0.016-0.156-0.018-0.25-0.162-0.25c-0.189,0-0.348,0.2-0.373,0.453l-0.058,0.604h-0.271l0.178-1.845h0.271l-0.056,0.571
			c-0.007,0.078-0.021,0.182-0.047,0.252l0.005,0.003c0.089-0.159,0.248-0.263,0.452-0.263c0.286,0,0.357,0.182,0.336,0.401
			l-0.084,0.88H119.206"/>
		<path id="path3313" inkscape:connector-curvature="0" fill="#9C1006" d="M120.41,238.065c-0.152,0-0.27,0.113-0.309,0.288h0.533
			C120.656,238.176,120.568,238.065,120.41,238.065z M120.877,238.54h-0.799c-0.035,0.285,0.074,0.411,0.332,0.411
			c0.121,0,0.25-0.025,0.368-0.073l0.016,0.21c-0.137,0.051-0.296,0.081-0.453,0.081c-0.387,0-0.582-0.202-0.54-0.645
			c0.037-0.377,0.279-0.662,0.643-0.662c0.359,0,0.486,0.237,0.459,0.523C120.898,238.426,120.89,238.487,120.877,238.54"/>
		<path id="path3315" inkscape:connector-curvature="0" fill="#9C1006" d="M122.473,239.193c-0.536,0-0.622-0.293-0.592-0.606
			l0.108-1.125h0.275l-0.106,1.104c-0.021,0.228,0.037,0.399,0.354,0.399c0.278,0,0.416-0.116,0.447-0.435l0.102-1.069h0.271
			l-0.102,1.049C123.188,238.965,122.92,239.193,122.473,239.193"/>
		<path id="path3317" inkscape:connector-curvature="0" fill="#9C1006" d="M124.332,239.167l0.077-0.806
			c0.015-0.157-0.019-0.251-0.163-0.251c-0.189,0-0.348,0.2-0.372,0.453l-0.058,0.604h-0.271l0.121-1.256h0.258
			c-0.006,0.068-0.021,0.177-0.041,0.248h0.002c0.09-0.162,0.252-0.273,0.464-0.273c0.286,0,0.356,0.183,0.336,0.402l-0.085,0.879
			H124.332"/>
		<path id="path3319" inkscape:connector-curvature="0" fill="#9C1006" d="M125.248,237.689c-0.096,0-0.167-0.073-0.158-0.169
			c0.009-0.094,0.095-0.17,0.191-0.17c0.093,0,0.164,0.076,0.155,0.17S125.342,237.689,125.248,237.689z M124.969,239.167
			l0.121-1.256h0.271l-0.121,1.256H124.969"/>
		<path id="path3321" inkscape:connector-curvature="0" fill="#9C1006" d="M126.203,239.167h-0.275l-0.35-1.256h0.299l0.171,0.665
			c0.02,0.086,0.041,0.174,0.056,0.258h0.003c0.027-0.079,0.063-0.167,0.097-0.248l0.306-0.675h0.29L126.203,239.167"/>
		<path id="path3323" inkscape:connector-curvature="0" fill="#9C1006" d="M127.435,238.088c-0.151,0-0.269,0.114-0.308,0.288h0.533
			C127.682,238.199,127.594,238.088,127.435,238.088z M127.902,238.564h-0.799c-0.035,0.285,0.074,0.412,0.332,0.412
			c0.121,0,0.25-0.025,0.368-0.074l0.015,0.21c-0.136,0.051-0.295,0.081-0.452,0.081c-0.387,0-0.582-0.202-0.54-0.645
			c0.037-0.376,0.279-0.662,0.643-0.662c0.359,0,0.486,0.237,0.459,0.523C127.924,238.449,127.914,238.51,127.902,238.564"/>
		<path id="path3325" inkscape:connector-curvature="0" fill="#9C1006" d="M128.896,238.154c-0.245-0.048-0.383,0.127-0.42,0.503
			l-0.049,0.511h-0.271l0.121-1.256h0.258c-0.006,0.07-0.024,0.182-0.052,0.278h0.005c0.071-0.17,0.214-0.326,0.446-0.301
			L128.896,238.154"/>
		<path id="path3327" inkscape:connector-curvature="0" fill="#9C1006" d="M129.285,239.193c-0.096,0-0.198-0.013-0.274-0.035
			l0.042-0.23c0.076,0.031,0.176,0.049,0.271,0.049c0.141,0,0.246-0.063,0.256-0.165c0.025-0.258-0.541-0.101-0.5-0.535
			c0.021-0.22,0.205-0.39,0.551-0.39c0.076,0,0.164,0.011,0.236,0.025l-0.037,0.218c-0.07-0.023-0.153-0.036-0.234-0.036
			c-0.148,0-0.226,0.061-0.234,0.157c-0.023,0.247,0.545,0.111,0.504,0.533C129.843,239.021,129.619,239.193,129.285,239.193"/>
		<path id="path3329" inkscape:connector-curvature="0" fill="#9C1006" d="M130.389,237.689c-0.096,0-0.167-0.073-0.158-0.169
			c0.01-0.094,0.095-0.17,0.191-0.17c0.094,0,0.164,0.076,0.155,0.17S130.482,237.689,130.389,237.689z M130.109,239.167
			l0.121-1.256h0.271l-0.121,1.256H130.109"/>
		<path id="path3331" inkscape:connector-curvature="0" fill="#9C1006" d="M131.183,239.191c-0.269,0-0.339-0.104-0.312-0.385
			l0.065-0.685h-0.24l0.021-0.21h0.24l0.038-0.399l0.278-0.073l-0.047,0.473h0.33l-0.021,0.21h-0.328l-0.058,0.602
			c-0.019,0.187,0.015,0.237,0.142,0.237c0.055,0,0.109-0.008,0.155-0.018l0.003,0.217
			C131.371,239.178,131.267,239.191,131.183,239.191"/>
		<path id="path3333" inkscape:connector-curvature="0" fill="#9C1006" d="M132.582,237.674c-0.086,0-0.146-0.068-0.139-0.154
			c0.008-0.084,0.083-0.151,0.169-0.151c0.083,0,0.146,0.067,0.138,0.151C132.74,237.606,132.666,237.674,132.582,237.674z
			 M132.084,237.674c-0.085,0-0.145-0.068-0.137-0.154c0.008-0.084,0.081-0.151,0.167-0.151s0.147,0.067,0.14,0.151
			C132.245,237.606,132.171,237.674,132.084,237.674z M132.439,238.591c-0.375,0-0.488,0.102-0.5,0.22
			c-0.008,0.097,0.05,0.17,0.156,0.17c0.182,0,0.322-0.178,0.34-0.356L132.439,238.591L132.439,238.591z M132.4,239.167
			c0.008-0.08,0.02-0.164,0.035-0.232l-0.002-0.002c-0.075,0.148-0.242,0.26-0.442,0.26c-0.215,0-0.337-0.144-0.317-0.349
			c0.027-0.283,0.322-0.435,0.782-0.435l0.005-0.053c0.018-0.178-0.038-0.261-0.223-0.261c-0.116,0-0.271,0.038-0.388,0.089
			l-0.028-0.21c0.132-0.051,0.307-0.089,0.475-0.089c0.366,0,0.464,0.167,0.438,0.439l-0.048,0.498
			c-0.011,0.109-0.021,0.237-0.025,0.344H132.4"/>
		<path id="path3335" inkscape:connector-curvature="0" fill="#9C1006" d="M133.452,239.191c-0.269,0-0.339-0.104-0.312-0.385
			l0.065-0.685h-0.24l0.021-0.21h0.24l0.038-0.399l0.278-0.073l-0.046,0.473h0.329l-0.021,0.21h-0.328l-0.058,0.602
			c-0.019,0.187,0.015,0.237,0.142,0.237c0.055,0,0.109-0.008,0.155-0.018l0.003,0.217
			C133.641,239.178,133.536,239.191,133.452,239.191"/>
		<path id="path3337" inkscape:connector-curvature="0" fill="#9C1006" d="M135.336,237.673c-0.073,0-0.146,0.003-0.207,0.005
			l-0.049,0.508c0.045,0.003,0.088,0.003,0.146,0.003c0.254,0,0.384-0.104,0.4-0.275
			C135.641,237.774,135.571,237.673,135.336,237.673L135.336,237.673z M135.211,238.394c-0.025,0-0.113,0-0.151,0.002l-0.053,0.546
			c0.042,0.005,0.136,0.013,0.201,0.013c0.25,0,0.378-0.124,0.395-0.29C135.621,238.472,135.467,238.394,135.211,238.394
			L135.211,238.394z M135.171,239.177c-0.116,0-0.272-0.005-0.462-0.008l0.164-1.706c0.135-0.002,0.324-0.008,0.532-0.008
			c0.364,0,0.542,0.152,0.517,0.415c-0.018,0.174-0.133,0.323-0.316,0.389v0.005c0.193,0.033,0.311,0.188,0.291,0.39
			C135.873,238.899,135.674,239.177,135.171,239.177"/>
		<path id="path3339" inkscape:connector-curvature="0" fill="#9C1006" d="M136.742,238.09c-0.152,0-0.27,0.114-0.309,0.288h0.533
			C136.989,238.201,136.902,238.09,136.742,238.09z M137.209,238.566h-0.799c-0.035,0.285,0.074,0.411,0.332,0.411
			c0.122,0,0.251-0.025,0.369-0.073l0.016,0.21c-0.137,0.051-0.297,0.081-0.453,0.081c-0.387,0-0.582-0.202-0.539-0.645
			c0.035-0.377,0.277-0.662,0.643-0.662c0.358,0,0.484,0.237,0.457,0.523C137.23,238.451,137.223,238.512,137.209,238.566"/>
		<path id="path3341" inkscape:connector-curvature="0" fill="#9C1006" d="M138.205,238.156c-0.246-0.048-0.385,0.127-0.421,0.503
			l-0.049,0.511h-0.271l0.121-1.256h0.258c-0.006,0.07-0.025,0.182-0.053,0.278h0.006c0.072-0.17,0.213-0.326,0.445-0.301
			L138.205,238.156"/>
		<path id="path3343" inkscape:connector-curvature="0" fill="#9C1006" d="M138.354,239.169l0.178-1.845h0.271l-0.178,1.845H138.354
			"/>
		<path id="path3345" inkscape:connector-curvature="0" fill="#9C1006" d="M139.275,237.691c-0.097,0-0.168-0.073-0.158-0.169
			c0.008-0.094,0.094-0.17,0.19-0.17c0.093,0,0.165,0.076,0.155,0.17C139.454,237.615,139.368,237.691,139.275,237.691
			L139.275,237.691z M138.996,239.169l0.121-1.256h0.271l-0.121,1.256H138.996"/>
		<path id="path3347" inkscape:connector-curvature="0" fill="#9C1006" d="M140.424,239.169l0.077-0.807
			c0.015-0.156-0.019-0.25-0.163-0.25c-0.189,0-0.348,0.2-0.372,0.453l-0.058,0.604h-0.271l0.121-1.256h0.258
			c-0.006,0.068-0.021,0.177-0.041,0.247h0.002c0.09-0.161,0.252-0.272,0.464-0.272c0.286,0,0.356,0.182,0.335,0.401l-0.084,0.88
			H140.424"/>
	</g>
</g>
<g>
	<rect x="31.75" y="237.054" fill="none" width="21.579" height="9.58"/>
	<text transform="matrix(1.0767 0 0 1 31.7505 245.5627)"><tspan x="0" y="0" fill="#9C1006" font-family="'MyriadPro-Bold'" font-size="11.9849">C</tspan><tspan x="7.131" y="0" fill="#9C1006" font-family="'MyriadPro-Bold'" font-size="5.1364"> </tspan><tspan x="8.168" y="0" fill="#9C1006" font-family="'MyriadPro-Bold'" font-size="11.9849">I</tspan><tspan x="11.584" y="0" fill="#9C1006" font-family="'MyriadPro-Bold'" font-size="5.1364"> </tspan><tspan x="12.622" y="0" fill="#9C1006" font-family="'MyriadPro-Bold'" font-size="11.9849">T</tspan></text>
	<rect x="31.75" y="246.636" fill="#9C1006" width="20.805" height="0.798"/>
	<rect x="31.858" y="247.932" fill="none" width="20.738" height="1.122"/>
	<text transform="matrix(1.0767 0 0 1 31.8579 248.7825)" fill="#9C1006" font-family="'MyriadPro-Bold'" font-size="1.1985">Complex and Distributed IT </text>
</g>
</svg>
